{"title":"TED 2 {2015} CAM XVID AC3 - MRG","uid":12081159,"size":704355631,"categoryP":"video","categoryS":"movies","magnet":"?xt=urn:btih:061023b8cfe8d4ddfb43724e53660c00dd8bd0b9&amp;dn=TED+2+%7B2015%7D+CAM+XVID+AC3+-+MRG&amp;tr=udp%3A%2F%2Ftracker.openbittorrent.com%3A80&amp;tr=udp%3A%2F%2Fopen.demonii.com%3A1337&amp;tr=udp%3A%2F%2Ftracker.coppersurfer.tk%3A6969&amp;tr=udp%3A%2F%2Fexodus.desync.com%3A6969","seeders":19,"leechers":0,"uploader":"makintos13","files":18,"time":1435773018,"description":"screena:\n &lt;a href=&quot;\nhttp://imgmak.com/MW&quot; rel=&quot;nofollow&quot; target=&quot;_NEW&quot;&gt;\nhttp://imgmak.com/MW&lt;/a&gt;\n &lt;a href=&quot;\nhttp://imgmak.com/Md&quot; rel=&quot;nofollow&quot; target=&quot;_NEW&quot;&gt;\nhttp://imgmak.com/Md&lt;/a&gt;\n &lt;a href=&quot;\nhttp://imgmak.com/Ms&quot; rel=&quot;nofollow&quot; target=&quot;_NEW&quot;&gt;\nhttp://imgmak.com/Ms&lt;/a&gt;\n &lt;a href=&quot;\nhttp://imgmak.com/M4&quot; rel=&quot;nofollow&quot; target=&quot;_NEW&quot;&gt;\nhttp://imgmak.com/M4&lt;/a&gt;\n &lt;a href=&quot;\nhttp://imgmak.com/M8&quot; rel=&quot;nofollow&quot; target=&quot;_NEW&quot;&gt;\nhttp://imgmak.com/M8&lt;/a&gt;\n &lt;a href=&quot;\nhttp://imgmak.com/ML&quot; rel=&quot;nofollow&quot; target=&quot;_NEW&quot;&gt;\nhttp://imgmak.com/ML&lt;/a&gt;\n &lt;a href=&quot;\nhttp://imgmak.com/MX&quot; rel=&quot;nofollow&quot; target=&quot;_NEW&quot;&gt;\nhttp://imgmak.com/MX&lt;/a&gt;\n &lt;a href=&quot;\nhttp://imgmak.com/OC&quot; rel=&quot;nofollow&quot; target=&quot;_NEW&quot;&gt;\nhttp://imgmak.com/OC&lt;/a&gt;\n\n\nTED 2 {2015} CAM XVID AC3 -MRG\n\nFormat                      : AVI\nFormat/Info                 : Audio Video Interleave\nFile size                   : 670 MiB\nDuration                    : 1h 46mn\nOverall bit rate            : 875 Kbps\nWriting library             : VirtualDub build 35491/release\n\nVideo\nID                          : 0\nFormat                      : MPEG-4 Visual\nFormat profile              : Advanced Simple@L5\nFormat settings, BVOP       : 2\nFormat settings, QPel       : No\nFormat settings, GMC        : No warppoints\nFormat settings, Matrix     : Default (H.263)\nMuxing mode                 : Packed bitstream\nCodec ID                    : XVID\nCodec ID/Hint               : XviD\nDuration                    : 1h 46mn\nBit rate                    : 737 Kbps\nWidth                       : 720 pixels\nHeight                      : 304 pixels\nDisplay aspect ratio        : 2.35:1\nFrame rate                  : 25.000 fps\nColor space                 : YUV\nChroma subsampling          : 4:2:0\nBit depth                   : 8 bits\nScan type                   : Progressive\nCompression mode            : Lossy\nBits/(Pixel*Frame)          : 0.135\nStream size                 : 564 MiB (84%)\nWriting library             : XviD 73\n\nAudio\nID                          : 1\nFormat                      : AC-3\nFormat/Info                 : Audio Coding 3\nMode extension              : CM (complete main)\nFormat settings, Endianness : Big\nCodec ID                    : 2000\nDuration                    : 1h 46mn\nBit rate mode               : Constant\nBit rate                    : 128 Kbps\nChannel(s)                  : 2 channels\nChannel positions           : Front: L R\nSampling rate               : 48.0 KHz\nBit depth                   : 16 bits\nCompression mode            : Lossy\nStream size                 : 97.9 MiB (15%)\nAlignment                   : Split accross interleaves\nInterleave, duration        : 40 ms (1.00 video frame)\nInterleave, preload duratio : 500 ms","torrent":{"xt":"urn:btih:061023b8cfe8d4ddfb43724e53660c00dd8bd0b9","amp;dn":"TED+2+%7B2015%7D+CAM+XVID+AC3+-+MRG","amp;tr":["udp%3A%2F%2Ftracker.openbittorrent.com%3A80","udp%3A%2F%2Fopen.demonii.com%3A1337","udp%3A%2F%2Ftracker.coppersurfer.tk%3A6969","udp%3A%2F%2Fexodus.desync.com%3A6969"],"infoHash":"061023b8cfe8d4ddfb43724e53660c00dd8bd0b9","infoHashBuffer":{"type":"Buffer","data":[6,16,35,184,207,232,212,221,251,67,114,78,83,102,12,0,221,139,208,185]},"announce":[],"urlList":[]}}